<!-- "display: none" ensures the SVG doesn't take up space even though it's not being shown because of the use of symbol -->
<svg xmlns="http://www.w3.org/2000/svg" style="display:none;">
<symbol id="icon-network" viewBox="0 0 25 25">
        <title>network</title>
        <path d="M22 12.501c-.694 0-1.306.356-1.664.895l-2.706-1.118a4.462 4.462 0 0 0 .369-1.776 4.456 4.456 0 0 0-.995-2.788l3.986-3.995c.298.176.64.283 1.01.283 1.103 0 2-.897 2-2s-.897-2-2-2-2 .897-2 2c0 .37.107.712.283 1.009l-3.985 3.995a4.459 4.459 0 0 0-2.799-1.004c-1.673 0-3.119.929-3.895 2.287l-5.641-2.42C3.985 5.75 4 5.627 4 5.501c0-1.103-.897-2-2-2s-2 .897-2 2 .897 2 2 2c.617 0 1.163-.287 1.53-.728l5.681 2.435a4.432 4.432 0 0 0-.212 1.293 4.46 4.46 0 0 0 1.008 2.803l-6.997 6.98A1.98 1.98 0 0 0 2 20.001c-1.103 0-2 .897-2 2s.897 2 2 2 2-.897 2-2c0-.37-.107-.712-.283-1.01l6.999-6.981a4.442 4.442 0 0 0 2.283.94v5.122c-.86.224-1.5 1-1.5 1.929 0 1.103.897 2 2 2s2-.897 2-2c0-.929-.64-1.705-1.5-1.929V14.95a4.472 4.472 0 0 0 3.12-1.802l2.896 1.197c-.003.052-.015.103-.015.156 0 1.103.897 2 2 2s2-.897 2-2-.897-2-2-2zm-20-6a1 1 0 1 1 0-2 1 1 0 0 1 0 2zm20-5.5a1 1 0 1 1 0 2 1 1 0 0 1 0-2zm-20 22a1 1 0 1 1 0-2 1 1 0 0 1 0 2zm12.499-1a1 1 0 1 1-2 0 1 1 0 0 1 2 0zm-1-8c-1.93 0-3.5-1.57-3.5-3.5s1.57-3.5 3.5-3.5 3.5 1.57 3.5 3.5-1.57 3.5-3.5 3.5zm8.501 1.5a1 1 0 1 1 0-2 1 1 0 0 1 0 2z"/>
    </symbol>


    <symbol id="icon-heart" viewBox="0 0 1024 1024">
	    <title>heart</title>
	    <path class="path1" d="M934.176 168.48c-116.128-115.072-301.824-117.472-422.112-9.216-120.32-108.256-305.952-105.856-422.144 9.216-119.712 118.528-119.712 310.688 0 429.28 34.208 33.888 353.696 350.112 353.696 350.112 37.856 37.504 99.072 37.504 136.896 0 0 0 349.824-346.304 353.696-350.112 119.744-118.592 119.744-310.752-0.032-429.28zM888.576 552.576l-353.696 350.112c-12.576 12.512-33.088 12.512-45.6 0l-353.696-350.112c-94.4-93.44-94.4-245.472 0-338.912 91.008-90.080 237.312-93.248 333.088-7.104l43.392 39.040 43.36-39.040c95.808-86.144 242.112-83.008 333.12 7.104 94.4 93.408 94.4 245.44 0.032 338.912zM296.096 240.032c8.864 0 16 7.168 16 16s-7.168 16-16 16h-0.032c-57.408 0-103.968 46.56-103.968 103.968v0.032c0 8.832-7.168 16-16 16s-16-7.168-16-16v0c0-75.072 60.832-135.904 135.872-135.968 0.064 0 0.064-0.032 0.128-0.032z">
	    </path>
  </symbol>

    <symbol id="icon-arrow" viewBox="0 0 30 30">
        <title>Arrow</title>
	   <path d="M1.2,8h12.5V2c0-0.2,0.1-0.4,0.3-0.5c0.2-0.1,0.4,0,0.5,0.1l10,10c0.1,0.1,0.1,0.2,0.1,0.4s-0.1,0.3-0.1,0.4l-10,10
		c-0.1,0.1-0.2,0.1-0.4,0.1c-0.1,0-0.1,0-0.2,0c-0.2-0.1-0.3-0.3-0.3-0.5v-6H1.2c-0.3,0-0.5-0.2-0.5-0.5v-7C0.7,8.2,1,8,1.2,8z">
        </path>
    </symbol>

    <symbol id="icon-quotes" viewBox="75 0 25 15">
        <title>Quotes</title>
            <path d="M7.48,0A7.49,7.49,0,0,0,0,7.48v1A3.75,3.75,0,1,0,.81,6.18,6.81,6.81,0,0,1,7.48.68a.34.34,0,0,0,0-.68Z"/>
            <path d="M16,0A7.49,7.49,0,0,0,8.5,7.48v1A3.75,3.75,0,1,0,9.3,6.18,6.81,6.81,0,0,1,16,.68.34.34,0,0,0,16,0Z"/>
            <path d="M38.68,12.23a7.49,7.49,0,0,0,7.48-7.48v-1a3.75,3.75,0,1,0-.81,2.31,6.81,6.81,0,0,1-6.67,5.5.34.34,0,0,0,0,.68Z"/>
            <path d="M30.19,12.23a7.49,7.49,0,0,0,7.48-7.48v-1a3.75,3.75,0,1,0-.81,2.31,6.81,6.81,0,0,1-6.67,5.5.34.34,0,1,0,0,.68Z"/>
    </symbol>


</svg>
