<svg xmlns="http://www.w3.org/2000/svg" width="24" height="24" viewBox="0 0 24 24"><path d="M22 12.501c-.694 0-1.306.356-1.664.895l-2.706-1.118a4.462 4.462 0 0 0 .369-1.776 4.456 4.456 0 0 0-.995-2.788l3.986-3.995c.298.176.64.283 1.01.283 1.103 0 2-.897 2-2s-.897-2-2-2-2 .897-2 2c0 .37.107.712.283 1.009l-3.985 3.995a4.459 4.459 0 0 0-2.799-1.004c-1.673 0-3.119.929-3.895 2.287l-5.641-2.42C3.985 5.75 4 5.627 4 5.501c0-1.103-.897-2-2-2s-2 .897-2 2 .897 2 2 2c.617 0 1.163-.287 1.53-.728l5.681 2.435a4.432 4.432 0 0 0-.212 1.293 4.46 4.46 0 0 0 1.008 2.803l-6.997 6.98A1.98 1.98 0 0 0 2 20.001c-1.103 0-2 .897-2 2s.897 2 2 2 2-.897 2-2c0-.37-.107-.712-.283-1.01l6.999-6.981a4.442 4.442 0 0 0 2.283.94v5.122c-.86.224-1.5 1-1.5 1.929 0 1.103.897 2 2 2s2-.897 2-2c0-.929-.64-1.705-1.5-1.929V14.95a4.472 4.472 0 0 0 3.12-1.802l2.896 1.197c-.003.052-.015.103-.015.156 0 1.103.897 2 2 2s2-.897 2-2-.897-2-2-2zm-20-6a1 1 0 1 1 0-2 1 1 0 0 1 0 2zm20-5.5a1 1 0 1 1 0 2 1 1 0 0 1 0-2zm-20 22a1 1 0 1 1 0-2 1 1 0 0 1 0 2zm12.499-1a1 1 0 1 1-2 0 1 1 0 0 1 2 0zm-1-8c-1.93 0-3.5-1.57-3.5-3.5s1.57-3.5 3.5-3.5 3.5 1.57 3.5 3.5-1.57 3.5-3.5 3.5zm8.501 1.5a1 1 0 1 1 0-2 1 1 0 0 1 0 2z"/><g><path fill="none" d="M0 0h24v24H0z"/></g></svg>