<svg xmlns="http://www.w3.org/2000/svg" viewBox="0 0 46.16 12.23"><defs><style>.cls-1{fill:#fff}</style></defs><title>Quotes</title><g id="Layer_2" data-name="Layer 2"><g id="Layer_1-2" data-name="Layer 1"><path fill="#fff" class="cls-1" d="M7.48 0A7.49 7.49 0 0 0 0 7.48v1a3.75 3.75 0 1 0 .81-2.3A6.81 6.81 0 0 1 7.48.68a.34.34 0 0 0 0-.68zM16 0a7.49 7.49 0 0 0-7.5 7.48v1a3.75 3.75 0 1 0 .8-2.3A6.81 6.81 0 0 1 16 .68.34.34 0 0 0 16 0zM38.68 12.23a7.49 7.49 0 0 0 7.48-7.48v-1a3.75 3.75 0 1 0-.81 2.31 6.81 6.81 0 0 1-6.67 5.5.34.34 0 0 0 0 .68zM30.19 12.23a7.49 7.49 0 0 0 7.48-7.48v-1a3.75 3.75 0 1 0-.81 2.31 6.81 6.81 0 0 1-6.67 5.5.34.34 0 1 0 0 .68z"/></g></g></svg>