<svg xmlns="http://www.w3.org/2000/svg" xmlns:xlink="http://www.w3.org/1999/xlink" width="901" height="968" viewBox="0 0 901 968">
    <defs>
        <path id="a" d="M.804.938h899v967h-899z"/>
    </defs>
    <g fill="none" fill-rule="evenodd" transform="translate(1)">
        <mask id="b" fill="#fff">
            <use xlink:href="#a"/>
        </mask>
        <use fill="#EFF5FF" xlink:href="#a"/>
        <g fill-rule="nonzero" mask="url(#b)">
            <path fill="#DEE0E0" d="M202.95 233.281c.243 10.214.22 77.008-.067 200.383 140.312.224 211.134.224 212.467 0 4.852.114 9.98 2.078 15.383 5.893v416.75H-194.81V233.285z"/>
            <path fill="#00ADED" d="M68.858 728.36v22.168l32.395 32.396-32.395 32.395v22.168h22.168l32.395-32.395 32.396 32.395h22.168v-22.168l-32.395-32.395 32.395-32.396V728.36h-22.168l-32.396 32.395-32.395-32.395z"/>
            <path fill="#FFF" d="M150.703 610.135v82.98H96.14v-82.98H68.858v81.845l27.282 27.282h81.845V610.135zM150.703 491.91H68.858v109.127H96.14v-82.974h54.563v82.974h27.282v-81.845z"/>
            <path fill="#00ADED" d="M-59.758 491.91v22.168l32.402 32.395-32.402 32.396v22.174h22.169l32.401-32.401 32.395 32.401h22.168V578.87L16.98 546.473l32.395-32.395V491.91H27.207l-32.395 32.395-32.401-32.395z"/>
            <path fill="#FFF" d="M22.094 811.34H-32.47v-56.833h54.564v56.833zm0-82.98h-81.808l-.037 27.282v54.563l27.281 27.282h54.564l27.275-.12v-81.725L22.094 728.36zM49.375 636.282v-26.147H-59.75v109.127H49.375v-26.147H-32.47v-15.718h80.71v-25.958h-80.71v-15.157z"/>
            <path fill="#00ADED" d="M68.858 367.084v22.168l32.395 32.395-32.395 32.395v22.169h22.168l32.395-32.396 32.396 32.396h22.168v-22.169l-32.395-32.395 32.395-32.395v-22.168h-22.168l-32.396 32.395-32.395-32.395z"/>
            <path fill="#FFF" d="M150.703 248.859v82.98H96.14v-82.98H68.858v81.845l27.282 27.281h81.845V248.86zM22.094 450.064H-32.47V393.23h54.564v56.834zm0-82.98h-81.808l-.037 27.281v54.564l27.281 27.282h54.564l27.275-.12v-81.726l-27.275-27.281zM49.375 275.005V248.86H-59.75v109.126H49.375V331.84H-32.47V316.12h80.71v-25.957h-80.71v-15.158z"/>
            <path fill="#00ADED" d="M305.302 491.91v22.168l32.401 32.395-32.401 32.396v22.174h22.168l32.402-32.401 32.395 32.401h22.168V578.87l-32.395-32.396 32.395-32.395V491.91h-22.168l-32.395 32.395-32.402-32.395z"/>
            <path fill="#FFF" d="M268.928 491.91v82.98h-54.563v-82.98h-27.282v81.845l27.282 27.282h81.845V491.91zM387.153 811.34H332.59v-56.833h54.563v56.833zm0-82.98h-81.807l-.038 27.282v54.563l27.282 27.282h54.563l27.276-.12v-81.725l-27.276-27.282zM414.435 636.282v-26.147H305.308v109.127h109.127v-26.147H332.59v-15.718h80.71v-25.958h-80.71v-15.157zM296.21 754.507V728.36H187.083v109.127H296.21V811.34h-81.845v-15.724h80.71v-25.958h-80.71v-15.151z"/>
            <g transform="translate(156.043 432.447)">
                <path fill="#FFE7B8" d="M130.602 253.916l3.985-12.32a6.412 6.412 0 0 1 6.55-4.413l15.618 1.084a10.927 10.927 0 0 1-5.876 7.755l-3.884 1.892 4.602.359a1.488 1.488 0 0 1 1.167 2.232 3.695 3.695 0 0 1-3.38 1.892l-3.7-.17-7.302 6.052-7.78-4.363z"/>
                <path fill="#FFE7B8" d="M151.225 264.962l2.522-12.698a6.418 6.418 0 0 0-3.568-7.062l-14.18-6.677a10.92 10.92 0 0 0 1.368 9.635l2.453 3.574-4.2-1.929a1.482 1.482 0 0 0-2.099 1.35 3.663 3.663 0 0 0 2.03 3.284l3.317 1.659 3.436 8.827 8.921.037z"/>
                <path fill="#00ADED" d="M283.807 15.959a31.759 31.759 0 0 0-26.803-14.722H50.541c-13.013 0-23.57 10.536-23.593 23.549v100.13h157.971v134.372a6.412 6.412 0 0 0-3.152 1.52l-.442-.209c-.107.31-.189.63-.264.94a6.488 6.488 0 0 0-1.154 2.1l-3.979 12.32 7.793 4.343.984-.813 1.545 3.979-.48-.133 1.722 3.323.138.353h.045l6.034 11.626a20.75 20.75 0 0 0-3.28-.63v-.63a2.654 2.654 0 1 0-5.302 0v.75a20.718 20.718 0 0 0-10.617 4.993l10.85-21.872-9.394-5.309-17.528 10.309c-21.082 12.709-29.077 39.343-18.48 61.562l7.888 16.544 5.126 54.64V590.57h9.25a17.143 17.143 0 0 0-10.568 15.832h35.9c0-6.927-4.169-13.174-10.566-15.832h8.322V483.386h5.675v107.185h9.262a17.143 17.143 0 0 0-10.567 15.832h35.938a17.15 17.15 0 0 0-10.573-15.832h8.329V419.662l1.052 2.85 3.632-38.75 10.523-22.068c10.601-22.219 2.605-48.855-18.48-61.562l-22.452-13.53-.92-.26 2.383-12.036a6.412 6.412 0 0 0-2.522-6.437 10.914 10.914 0 0 0 5.542-7.566l-11.009-.77V124.917h116.744l28.372-.511s-16.216-43.6-30.264-69.355c-5.365-9.842-22.168-39.091-22.168-39.091zM163.381 325.623l1.047-2.106c1.167 1.93 2.907 3.07 4.496 2.83.599 1.54 1.382 3 2.332 4.351l1.01 4.742-8.885-9.817zm40.542 6.935a20.888 20.888 0 0 0 3.783-6.235c.126 0 .246.037.372.05l2.01 3.878-5.964 6.595.038.567c-.39-.195-.775-.384-1.173-.567l.934-4.288z" opacity=".31" style="mix-blend-mode:multiply"/>
                <path fill="#FF9E00" d="M139.624 48.581h6.122V242.92h-6.122z"/>
                <path fill="#FFF" d="M263.732 1.218H48.769A48.775 48.775 0 0 0 0 50.006v21.437h233.916V41.86c.018-22.446 7.37-40.642 29.816-40.642z"/>
                <path fill="#1F28BF" d="M139.523 71.443h5.883c.233 0 .422.19.422.422v31.103h-6.305V71.443z" opacity=".31" style="mix-blend-mode:multiply"/>
                <path fill="#050002" d="M107.954 353.743l-13.341-27.982c-10.593-22.218-2.595-48.849 18.486-61.555l17.547-10.265 9.388 5.309-26.128 52.666v41.644M179.875 367.62l13.348-27.975c10.594-22.22 2.596-48.853-18.486-61.562l-22.446-13.53-11.84-3.266 33.479 64.506v41.613"/>
                <path fill="#FFE7B8" d="M142.455 272.718a2.654 2.654 0 0 1 2.655 2.654v2.654h-5.31v-2.654a2.654 2.654 0 0 1 2.655-2.654zM128.836 322.338l-5.554-26.147h19.173v18.392zM156.074 322.338l5.555-26.147h-19.174v18.392z"/>
                <ellipse cx="164.015" cy="298.263" fill="#FFE7B8" rx="6.229" ry="4.123" transform="rotate(-72.39 164.015 298.263)"/>
                <ellipse cx="117.318" cy="298.838" fill="#FFE7B8" rx="4.108" ry="6.206" transform="rotate(-17.526 117.318 298.838)"/>
                <circle cx="142.985" cy="296.702" r="20.825" fill="#724D0C"/>
                <path fill="#FF9E00" d="M107.626 377.229h32.357v191.3h-32.357zM145.62 377.229h32.357v191.3H145.62z"/>
                <path fill="#FF9E00" d="M142.89 311.506a35.113 35.113 0 0 1 35.113 35.112V461.37h-70.219V346.62c0-19.39 15.717-35.11 35.106-35.113z"/>
                <path fill="#050002" d="M112.683 297.622l15.51 17.15-1.595 28.372a53.202 53.202 0 0 1-3.203 15.435l-15.44 41.878-5.89-62.83M174.327 297.622l-15.51 17.15 1.595 28.372a53.202 53.202 0 0 0 3.203 15.435l15.44 41.878 5.89-62.83"/>
            </g>
        </g>
    </g>
</svg>
