<svg xmlns="http://www.w3.org/2000/svg" width="953" height="1024" viewBox="0 0 953 1024">
    <g fill="none" fill-rule="evenodd">
        <path d="M2.058 0h953.058v1024H2.058z"/>
        <path fill="#EDF6FC" fill-rule="nonzero" d="M1.645 264.537h614.982v115.232H881.07c6.39 1.076 12.03 2.84 16.925 5.289 4.893 2.45 9.477 6.157 13.75 11.122l-.221 627.63H1.645V264.537z"/>
        <path fill="#F59C00" d="M565.303 534.723c.836 0 1.513.677 1.513 1.512v122.436c0 .836-.677 1.513-1.513 1.513H385.121a1.513 1.513 0 0 1-1.512-1.513l-.002-44.918a1.523 1.523 0 0 1 0-1.075l.002-76.443a1.513 1.513 0 0 1 1.512-1.512h180.182zm-145.127 57.97l-33.532 21.29v43.175h177.094v-9.722a1.629 1.629 0 0 1-.296-.126l-97.21-55.675a44.424 44.424 0 0 0-46.056 1.058zm143.562-54.934H386.645l-.001 72.63 31.903-20.256a47.48 47.48 0 0 1 49.197-1.121l95.993 54.967v-106.22zm-32.865 20.374c7.758 0 14.047 6.29 14.047 14.048-.012 7.754-6.294 14.037-14.047 14.048-7.758 0-14.048-6.29-14.048-14.048s6.29-14.048 14.048-14.048zm0 3.036c-6.082 0-11.012 4.93-11.012 11.012 0 6.082 4.93 11.012 11.012 11.012 6.081 0 11.011-4.93 11.011-11.012-.012-6.077-4.935-11-11.011-11.012z"/>
        <path fill="#73D2CF" d="M521.93 715.971a1.523 1.523 0 0 1 1.16 1.93l-.003 44.217a1.513 1.513 0 0 1-1.512 1.524 1.513 1.513 0 0 1-1.523-1.524l-.001-40.96-67.397 67.4 67.397 67.402V815a1.523 1.523 0 1 1 3.036 0v44.578c0 .836-.677 1.513-1.512 1.513H477a1.523 1.523 0 1 1 0-3.036h40.914l-67.375-67.38-67.374 67.38h40.946a1.523 1.523 0 1 1 0 3.036h-44.553a1.513 1.513 0 0 1-1.524-1.513V815a1.523 1.523 0 1 1 3.036 0v40.917l67.353-67.359-67.364-67.368v40.928a1.513 1.513 0 1 1-3.025 0v-44.15a1.521 1.521 0 0 1 1.147-1.965 1.52 1.52 0 0 1 .7.023l44.23.002a1.523 1.523 0 1 1 0 3.036l-40.948-.001 67.375 67.38 67.376-67.38H477a1.523 1.523 0 1 1 0-3.035l44.126-.001c.253-.089.53-.111.804-.056z"/>
        <path fill="#C2C2C2" d="M584.11 300.186c.836 0 1.513.678 1.513 1.513V501.22c0 .615-.371 1.168-.941 1.397a1.497 1.497 0 0 1-.571.116 1.544 1.544 0 0 1-1.058-.444l-41.254-41.256H375.274a1.513 1.513 0 0 1-1.513-1.524V301.7c0-.835.677-1.513 1.513-1.513H584.11zm-1.554 3.036h-205.76l-.01 154.732H542.36c.397.006.776.165 1.058.445l39.138 39.14V303.222zm-181.388 110.08h152.32a1.523 1.523 0 0 1 0 3.037h-152.32a1.523 1.523 0 1 1 0-3.037zm154.474-27.566a1.523 1.523 0 0 1-1.424 2.316h-152.32a1.523 1.523 0 0 1 0-3.036h152.32a1.523 1.523 0 0 1 1.424.72zm-152.961-28.997H555a1.523 1.523 0 0 1 0 3.036H402.68a1.523 1.523 0 1 1 0-3.036zm.75-28.276h152.32a1.523 1.523 0 0 1 0 3.036h-152.32a1.523 1.523 0 1 1 0-3.036z"/>
        <path fill="#8400FF" d="M695.41 603.843c-30.333 0-57.68-18.274-69.288-46.3-11.608-28.026-5.191-60.286 16.257-81.736 21.45-21.45 53.707-27.867 81.73-16.258 28.025 11.608 46.297 38.957 46.297 69.292-.058 41.398-33.6 74.943-74.996 75.002zm-71.929-73.49c.83 39.425 33.241 70.833 72.67 70.418 39.427-.415 71.172-32.497 71.172-71.93 0-39.433-31.745-71.515-71.173-71.93-39.428-.415-71.84 30.993-72.669 70.417H735.31l-27.502-27.504a1.513 1.513 0 0 1 2.116-2.116l29.776 29.768c.568.238.938.792.942 1.407a.233.233 0 0 1 0 .085.18.18 0 0 1 0 .074 1.534 1.534 0 0 1-.445 1.058l-30.252 30.244a1.523 1.523 0 0 1-2.116-2.116l27.841-27.843-112.188-.031z"/>
        <path fill="#C2C2C2" d="M861.894 1025.322a1.513 1.513 0 0 1-1.513-1.512V916.015l-27.502 27.504a1.523 1.523 0 0 1-2.116-2.116l29.777-29.779c.246-.593.84-.966 1.48-.93a1.46 1.46 0 0 1 1.154.444l30.263 30.265a1.513 1.513 0 0 1-2.116 2.116l-27.84-27.843v108.134a1.513 1.513 0 0 1-1.587 1.512z"/>
        <path fill="#73D2CF" d="M881.632 459.18a1.516 1.516 0 0 1 1.555 1.514V701.6a1.513 1.513 0 0 1-1.555 1.524h-75.78a1.513 1.513 0 0 1-1.512-1.524V460.694c0-.835.677-1.513 1.513-1.513h75.779zm-1.513 161.44h-72.744v79.466h72.744v-79.467zm-23.387 13.731a4.136 4.136 0 0 1 2.94 1.217l8.759 8.8a4.168 4.168 0 0 1 .156 5.706l-.156.166-3.884 3.886c-.1.141-.224.264-.363.362l-26.947 26.948a1.513 1.513 0 0 1-.593.37L820.99 687c-.156.055-.32.083-.486.085h-.212a3.396 3.396 0 0 1-1.618-.402 3.84 3.84 0 0 1-1.143-.91l-.095-.127a2.878 2.878 0 0 1-.465-1.586c0-.411.052-.82.158-1.217l5.057-15.434c.072-.225.2-.428.37-.592l26.84-26.855c.15-.32.41-.579.73-.729l3.677-3.676a4.125 4.125 0 0 1 2.695-1.2l.235-.006zm-32.333 36.212l-4.309 13.18-.05.102-.024.072.085.047a.36.36 0 0 0 .158 0l12.947-4.305-8.807-9.096zm26.443-27.762l-24.913 24.976 10.127 10.46 25.105-25.054-10.32-10.382zm5.868-5.414a1.06 1.06 0 0 0-.782.317l-2.972 2.978 10.328 10.382 2.978-2.971a1.121 1.121 0 0 0 0-1.577l-8.769-8.801a1.06 1.06 0 0 0-.657-.323l-.126-.005zm23.409-98.349h-72.744v78.556h72.744v-78.556zm-26.903 19.654a24.945 24.945 0 0 1-12.478 46.547v-.063a24.846 24.846 0 0 1-17.633-7.3 1.523 1.523 0 0 1 2.115-2.115c8.556 8.555 22.426 8.554 30.98-.001 8.555-8.556 8.555-22.427 0-30.983-7.617-7.618-19.448-8.453-27.99-2.505l.353-.024a1.523 1.523 0 0 1 1.618 1.407 1.513 1.513 0 0 1-1.406 1.618l-4.866.339h-.212l-.014-.003h-.026a1.514 1.514 0 0 1-1.342-1.99l.314-4.492a1.516 1.516 0 1 1 3.025.212l-.081 1.156a24.944 24.944 0 0 1 27.643-1.803zm-11.336 7.42c.49.302.768.853.72 1.425v13.53l8.737 8.738a1.523 1.523 0 0 1-1.058 2.592h-.032a1.513 1.513 0 0 1-1.057-.445l-9.182-9.182a1.502 1.502 0 0 1-.444-1.058v-14.175a1.523 1.523 0 0 1 2.316-1.424zm38.24-103.894h-72.744l-.001 73.784h72.744v-73.784zm-29.576 17.561c7.202 6.635 7.888 17.77 1.555 25.24l15.4 15.401c.57.59.57 1.526 0 2.116a1.502 1.502 0 0 1-1.036.444 1.502 1.502 0 0 1-1.058-.444l-15.422-15.402c-7.468 6.334-18.603 5.648-25.237-1.555-6.634-7.202-6.405-18.357.519-25.281 6.924-6.924 18.077-7.153 25.279-.519zm-12.345-1.8a15.202 15.202 0 1 0 10.758 4.454 15.168 15.168 0 0 0-10.758-4.454z"/>
        <path fill="#8400FF" d="M791.266 771.819c49.62 0 90.334 50.057 90.736 50.565a1.523 1.523 0 0 1 0 1.904c-.402.487-41.126 50.555-90.736 50.555-49.62 0-90.345-50.058-90.747-50.555a1.523 1.523 0 0 1 0-1.904c.402-.508 41.126-50.565 90.747-50.565zm0 3.025c-44.395 0-81.735 41.616-87.584 48.482 5.85 6.865 43.178 48.48 87.584 48.48 44.405 0 81.724-41.615 87.573-48.48-5.85-6.866-43.178-48.482-87.573-48.482zm0 13.932c19.091 0 34.568 15.478 34.568 34.57-.023 19.084-15.486 34.548-34.568 34.571-19.092 0-34.568-15.477-34.568-34.57s15.476-34.57 34.568-34.57zm0 3.004v.022a31.547 31.547 0 0 0-22.319 53.847 31.541 31.541 0 0 0 53.851-22.302c-.012-17.417-14.117-31.537-31.532-31.567zm.035 16.852c8.107.008 14.674 6.586 14.668 14.694-.012 8.11-6.593 14.678-14.703 14.672-8.107-.012-14.67-6.593-14.661-14.7.01-8.108 6.589-14.674 14.696-14.666zm-.035 3.047c-6.426 0-11.636 5.21-11.636 11.636 0 6.427 5.21 11.636 11.636 11.636 6.426 0 11.635-5.21 11.635-11.636 0-6.427-5.21-11.636-11.635-11.636z"/>
        <path fill="#06F" d="M677.978 749.657h-68.27a34.906 34.906 0 0 1-13.306-2.877 35.5 35.5 0 0 1-18.268-18.418 33.922 33.922 0 0 1-2.761-13.477 32.938 32.938 0 0 1 2.57-12.895 35.1 35.1 0 0 1 6.718-10.695 35.382 35.382 0 0 1 21.282-10.896 42.539 42.539 0 0 1 3.83-15.17 43.372 43.372 0 0 1 9.287-13.318 44.14 44.14 0 0 1 13.624-8.991 42.468 42.468 0 0 1 16.639-3.301 45.144 45.144 0 0 1 7.478.603 26.877 26.877 0 0 1 6.664 1.957 40.819 40.819 0 0 1 12.99 7.183 43.72 43.72 0 0 1 9.36 10.578 42.531 42.531 0 0 1 13.604 4.613 40.947 40.947 0 0 1 11.635 9.235 47.149 47.149 0 0 1 8.801 14.1 43.963 43.963 0 0 1 3.174 16.398 45.097 45.097 0 0 1-3.449 17.496 45.9 45.9 0 0 1-9.72 14.514 46.468 46.468 0 0 1-14.344 9.722 43.706 43.706 0 0 1-17.538 3.639zm-68.227-3.036h68.227a40.685 40.685 0 0 0 16.31-3.343 43.56 43.56 0 0 0 13.424-9.13 43.055 43.055 0 0 0 9.076-13.55 41.988 41.988 0 0 0 3.174-16.312 40.89 40.89 0 0 0-2.846-15.233 43.753 43.753 0 0 0-8.251-13.202 37.848 37.848 0 0 0-10.8-8.58 39.453 39.453 0 0 0-13.296-4.39 1.534 1.534 0 0 1-1.058-.719 40.568 40.568 0 0 0-9.065-10.452 37.91 37.91 0 0 0-12.09-6.675h-.149a23.957 23.957 0 0 0-5.987-1.766 42.584 42.584 0 0 0-6.981-.562 39.434 39.434 0 0 0-15.454 3.058 41.084 41.084 0 0 0-12.694 8.368 40.526 40.526 0 0 0-8.716 12.313 39.344 39.344 0 0 0-3.628 15.329 1.523 1.523 0 0 1-1.385 1.46 31.647 31.647 0 0 0-11.308 3.173 31.12 31.12 0 0 0-9.33 6.897 31.852 31.852 0 0 0-6.135 9.806 29.755 29.755 0 0 0-2.348 11.732 30.866 30.866 0 0 0 2.475 12.26 32.486 32.486 0 0 0 16.724 16.863 31.738 31.738 0 0 0 12.122 2.655h-.01z"/>
        <path fill="#F04" d="M646.662 841.093c21.208 0 38.497 17.008 38.847 38.214v16.343h24.202a7.246 7.246 0 0 1 7.235 7.226v72.463a7.247 7.247 0 0 1-7.235 7.257H582.714a7.246 7.246 0 0 1-7.235-7.257v-72.463a7.246 7.246 0 0 1 7.235-7.225h25.101v-16.344c.35-21.206 17.64-38.214 38.847-38.214zm63.05 57.552l-24.924.015c-.23.143-.5.226-.791.228a1.527 1.527 0 0 1-.793-.227l-6.762.003a1.516 1.516 0 0 1-1.683.002l-56.472.033a1.52 1.52 0 0 1-1.109 0l-6.922.004a1.526 1.526 0 0 1-1.845.001l-25.697.015a4.231 4.231 0 0 0-4.23 4.231v72.389a4.231 4.231 0 0 0 4.23 4.231h126.997a4.231 4.231 0 0 0 4.231-4.231v-72.463a4.231 4.231 0 0 0-4.23-4.231zm-58.316 24.83a10.06 10.06 0 0 1 4.887 9.095v8.198a9.976 9.976 0 0 1-3.269 7.405v5.501a6.802 6.802 0 0 1-6.77 6.791 6.802 6.802 0 0 1-6.79-6.791v-5.5a9.976 9.976 0 0 1-3.269-7.406v-8.198a10.06 10.06 0 0 1 15.211-9.096zm-5.152 2.07v.011a7.034 7.034 0 0 0-7.023 7.024v8.199c0 2.153.99 4.186 2.687 5.511.366.289.58.73.581 1.196v6.199a3.755 3.755 0 1 0 7.51 0v-6.2c.001-.466.216-.906.582-1.195a6.993 6.993 0 0 0 2.687-5.511v-8.199a7.034 7.034 0 0 0-7.024-7.034zm.418-81.441c-19.54 0-35.475 15.664-35.81 35.203v16.343h5.362v-16.036c0-16.82 13.635-30.456 30.454-30.456 16.819 0 30.453 13.636 30.453 30.456v16.036h5.352v-16.343c-.335-19.54-16.27-35.203-35.81-35.203zm.006 8.09c-15.143 0-27.418 12.277-27.418 27.42v16.036h54.835v-16.036c0-15.143-12.275-27.42-27.417-27.42z"/>
        <path fill="#C2C2C2" d="M485.25 1000.019h-90.006a1.513 1.513 0 0 1-1.512-1.513c.002-.398.162-.778.444-1.058l13.085-13.096h-12.017a1.513 1.513 0 0 1-1.057-2.592l13.084-13.086h-12.027a1.523 1.523 0 0 1-1.057-2.591l37.519-37.522c.28-.282.66-.441 1.058-.445h89.995a1.513 1.513 0 0 1 1.058 2.592l-13.095 13.086h12.016a1.523 1.523 0 0 1 1.524 1.523 1.523 1.523 0 0 1-.445 1.058l-13.063 13.096h12.016a1.523 1.523 0 0 1 1.407.931c.074.185.113.382.116.582a1.545 1.545 0 0 1-.444 1.058l-37.53 37.522c-.28.288-.666.452-1.068.455zm-86.335-3.037h85.68l34.494-34.485h-11.413l-21.4 21.39c-.28.282-.66.441-1.057.444h-73.664l-12.64 12.651zm12.016-15.687h73.685l21.399-21.39 13.095-13.128h-11.434l-21.4 21.4c-.28.282-.66.442-1.057.444h-73.664l-12.64 12.695 12.016-.021zm15.687-15.678h57.998l5.712-5.712 15.687-15.678 13.095-13.085h-85.68l-34.483 34.486 27.671-.01z"/>
        <g fill="#61B3F6" opacity=".31" style="mix-blend-mode:multiply">
            <path d="M851.453 1023.175V905.817l5.638-43.213 12.694-26.574c12.724-26.724 3.119-58.743-22.214-74.05l-27.015-16.29-1.058-.307 2.866-14.482a7.712 7.712 0 0 0-3.046-7.754 13.16 13.16 0 0 0 6.675-9.119l-13.244-.92V594.27h140.484s1.103-53.598-.286-81.603c-4.178-84.236-41.867-133.564-73.991-132.897H643.07a28.4 28.4 0 0 0-20.094 8.33 28.413 28.413 0 0 0-8.309 20.105l.414 186.065h190.189v118.48a7.753 7.753 0 0 0-3.83 1.83l-.539-.254c-.127.38-.222.761-.317 1.142a7.68 7.68 0 0 0-1.386 2.518l-4.792 14.81 9.383 5.215 1.185-.973 1.861 4.792-.582-.159 2.116 3.999.159.423h.063l7.257 13.995a25.047 25.047 0 0 0-3.914-.72v-2.252c-2.825-3.174-6.347-1.249-6.347 1.544v.878a24.931 24.931 0 0 0-12.788 6.009l13.063-26.33-11.297-6.347-21.156 12.355c-25.362 15.314-34.97 47.373-22.213 74.114l9.52 19.908 6.167 65.777v119.22h38.947v-41.71h6.791v41.7h28.782l10.05-1.058zm-72.161-230.612l1.258-2.539c1.407 2.317 3.502 3.692 5.416 3.407a25.146 25.146 0 0 0 2.803 5.236l1.217 5.713-10.694-11.817zm48.806 8.336a25.103 25.103 0 0 0 4.749-7.965l2.697 5.194-7.182 7.933v.688a34.56 34.56 0 0 0-1.407-.688l1.143-5.162z"/>
        </g>
        <g transform="translate(673.907 437.527)">
            <path fill="#FFE7B8" fill-rule="nonzero" d="M48.92 247.178l4.792-14.81a7.732 7.732 0 0 1 7.891-5.29L80.4 228.39a13.138 13.138 0 0 1-7.077 9.33l-4.675 2.317 5.553.434a1.777 1.777 0 0 1 1.418 2.644 4.421 4.421 0 0 1-4.062 2.275l-4.464-.201-8.79 7.278-9.383-5.29z"/>
            <path fill="#FFE7B8" fill-rule="nonzero" d="M73.746 260.485l3.026-15.296a7.712 7.712 0 0 0-4.295-8.463l-17.062-8.008a13.15 13.15 0 0 0 1.65 11.636l2.952 4.295-5.057-2.316a1.777 1.777 0 0 0-2.528 1.618 4.443 4.443 0 0 0 2.444 3.956l3.998 2 4.136 10.642 10.736-.064z"/>
            <path fill="#FF9E00" fill-rule="nonzero" d="M59.784 0h7.373v233.933h-7.373z"/>
            <path fill="#7F8284" fill-rule="nonzero" d="M59.657 27.525h7.076c.283 0 .513.226.519.508v37.448h-7.595V27.525z" opacity=".31" style="mix-blend-mode:multiply"/>
            <path fill="#151515" d="M21.662 367.35L5.604 333.645c-12.729-26.724-3.123-58.746 22.214-74.05l21.155-12.355 11.308 6.347-24.942 63.133-6.516 50.449M108.23 384.063l16.057-33.682c12.762-26.737 3.152-58.795-22.213-74.102l-27.026-16.29-14.249-3.926 40.302 77.647v50.131"/>
            <path fill="#FFE7B8" fill-rule="nonzero" d="M63.19 269.816a3.173 3.173 0 0 1 3.173 3.173v3.174h-6.346v-3.174a3.173 3.173 0 0 1 3.173-3.173zM46.794 329.552l-6.685-31.481h23.08v22.14zM79.575 329.552l6.696-31.481H63.19v22.14z"/>
            <ellipse cx="89.131" cy="300.559" fill="#FFE7B8" fill-rule="nonzero" rx="7.5" ry="4.961" transform="rotate(-72.39 89.13 300.56)"/>
            <ellipse cx="38.729" cy="300.535" fill="#FFE7B8" fill-rule="nonzero" rx="4.961" ry="7.5" transform="rotate(-17.61 38.73 300.535)"/>
            <ellipse cx="63.825" cy="298.695" fill="#724D0C" fill-rule="nonzero" rx="25.069" ry="25.071"/>
            <path fill="#C2C2C2" d="M21.27 395.626h38.947v190.487H21.27zM66.998 395.626h38.947v190.487H66.998z"/>
            <path fill="#C2C2C2" d="M63.719 316.51c23.368 0 42.31 18.944 42.31 42.313v138.05H21.45V358.77c.03-23.332 18.938-42.238 42.269-42.26z"/>
            <path fill="#151515" d="M32.81 302.969l13.212 17.496-1.914 34.158a64.194 64.194 0 0 1-3.861 18.576l-18.585 50.365-7.088-75.637M101.555 299.795l-18.67 20.65 1.915 34.157a64.194 64.194 0 0 0 3.893 18.576l17.464 49.328 8.176-74.558"/>
        </g>
        <path fill="#FFF" fill-rule="nonzero" d="M883.08 379.462l-259.049.307c-32.423 0-58.41 25.979-58.41 58.404v25.822h281.601V428.43c0-27.06 8.833-48.968 35.859-48.968z"/>
    </g>
</svg>
